<svg width="155" height="155" viewBox="0 0 155 155" fill="none" xmlns="http://www.w3.org/2000/svg">
  <g clip-path="url(#clip0_7208_5626)">
    <path d="M77.5 0C34.86 0 0.27 34.43 0 77V77.49C0 120.17 35.26 155 78.01 155H153.17C154.19 155 155 154.18 155 153.18V77.51C155 34.7 120.31 0 77.5 0ZM138.05 138.43C137.72 138.75 137.3 138.92 136.88 138.92C136.51 138.92 136.15 138.8 135.84 138.56L101.43 111.1C94.99 115.8 87.14 118.68 78.64 118.97C55.25 119.79 36.27 101.7 35.99 78.31C35.72 55.16 54.53 36.35 77.67 36.62C101.07 36.9 119.15 55.87 118.35 79.25C118.05 87.75 115.18 95.61 110.48 102.05L138.14 136.23C138.68 136.89 138.62 137.84 138.03 138.43H138.05Z" fill="#9F64DA"/>
    <path d="M59.4201 69.8297C55.7201 76.1297 55.5801 81.3297 52.9801 83.6397C51.3701 85.0597 48.8901 84.7797 47.5901 83.0697C43.6801 77.9797 46.1901 70.3597 47.6901 66.2697C49.4501 61.4697 51.6701 57.9997 55.6301 54.4597C60.1101 50.4497 65.1801 48.7797 68.9901 51.4597C73.2501 55.7297 64.5401 61.1097 59.4301 69.8297H59.4201Z" fill="#9F64DA"/>
  </g>
  <defs>
    <clipPath id="clip0_7208_5626">
      <rect width="155" height="155" fill="white"/>
    </clipPath>
  </defs>
</svg>