<svg viewBox="0 0 633 155" fill="none" xmlns="http://www.w3.org/2000/svg" preserveAspectRatio="xMidYMid meet">
  <g clip-path="url(#clip0_7195_5620)">
    <path d="M555.66 0.0598047C513.12 0.0598047 478.6 34.4598 478.33 76.9898C478.06 119.86 513.36 154.93 556.17 154.93H631.17C632.18 154.93 633 154.11 633 153.1V77.4898C633 34.7198 598.38 0.0498047 555.66 0.0498047V0.0598047ZM616.08 138.39C615.76 138.71 615.34 138.87 614.92 138.87C614.56 138.87 614.2 138.75 613.89 138.51L579.54 111.08C573.12 115.77 565.28 118.65 556.8 118.94C533.47 119.75 514.52 101.68 514.25 78.2998C513.98 55.1798 532.75 36.3798 555.84 36.6498C579.18 36.9198 597.23 55.8798 596.43 79.2398C596.14 87.7398 593.27 95.5898 588.58 102.02L616.19 136.18C616.72 136.83 616.67 137.78 616.07 138.38L616.08 138.39Z" fill="currentColor"/>
    <path d="M537.62 69.83C533.93 76.13 533.79 81.32 531.19 83.63C529.59 85.05 527.12 84.77 525.82 83.07C521.92 77.98 524.42 70.36 525.92 66.28C527.68 61.49 529.89 58.01 533.83 54.48C538.3 50.48 543.37 48.8 547.16 51.48C551.41 55.75 542.72 61.12 537.62 69.84V69.83Z" fill="currentColor"/>
    <path d="M233.2 0C190.45 0 155.8 34.7 155.8 77.5C155.8 120.3 190.45 155 233.2 155C275.95 155 310.6 120.3 310.6 77.5C310.6 34.7 275.94 0 233.2 0ZM233.2 114.34C212.9 114.34 196.4 97.81 196.4 77.5C196.4 57.19 212.91 40.66 233.2 40.66C253.49 40.66 269.99 57.19 269.99 77.5C269.99 97.81 253.48 114.34 233.2 114.34Z" fill="currentColor"/>
    <path d="M434.05 97.14C427.62 107.47 416.38 114.34 402.9 114.34C387.03 114.34 373.47 104.23 368.32 90.1C366.88 86.17 366.09 81.93 366.09 77.5C366.09 73.07 366.88 68.83 368.32 64.9C373.47 50.77 387.49 40.66 402.9 40.66C415.95 40.66 427.43 47.49 433.97 57.78L469.16 37.39C455.69 14.97 431.37 0 402.9 0C369.46 0 340.97 21.25 330.15 50.98C327.14 59.25 325.5 68.19 325.5 77.5C325.5 86.81 327.14 95.75 330.15 104.02C340.97 133.77 369.92 155 402.9 155C431.03 155 455.66 139.96 469.21 117.49L434.05 97.15V97.14Z" fill="currentColor"/>
    <path d="M142.98 41.7803L62.2 110.84C61.25 111.65 61.82 113.21 63.07 113.21H141.64C142.38 113.21 142.98 113.81 142.98 114.56V151.29C142.98 152.03 142.38 152.64 141.64 152.64H1.34C0.6 152.64 0 152.04 0 151.29V113.25C0 113.25 0 113.23 0.01 113.22L80.79 44.1404C81.74 43.3304 81.17 41.7704 79.92 41.7704H1.34C0.6 41.7704 0 41.1703 0 40.4203V3.71035C0 2.97035 0.6 2.36035 1.34 2.36035H141.64C142.38 2.36035 142.98 2.96035 142.98 3.71035V41.7404C142.98 41.7404 142.98 41.7604 142.97 41.7704L142.98 41.7803Z" fill="currentColor"/>
  </g>
  <defs>
    <clipPath id="clip0_7195_5620">
      <rect width="633" height="155" fill="currentColor"/>
    </clipPath>
  </defs>
</svg>
