<svg fill="none" height="100%" preserveAspectRatio="none" viewBox="0 0 298 370" width="100%" xmlns="http://www.w3.org/2000/svg"><path d="M1.27319 62.2998C3.69508 48.3739 17.1668 21.158 51.6787 23.701" stroke="#A79071" stroke-linecap="round" stroke-linejoin="round" stroke-width="2"></path><path d="M23.4102 51.5824C22.28 37.4928 28.5332 7.77592 62.5876 1.62535" stroke="#A79071" stroke-linecap="round" stroke-linejoin="round" stroke-width="2"></path><path d="M63.0244 1.66334C60.4195 15.5561 46.5908 42.5924 12.1154 39.5954" stroke="#A79071" stroke-linecap="round" stroke-linejoin="round" stroke-width="2"></path><path d="M39.9883 11.4688C41.3782 25.5352 35.6742 55.3623 1.73896 62.14" stroke="#A79071" stroke-linecap="round" stroke-linejoin="round" stroke-width="2"></path><path d="M295.728 62.2998C293.306 48.3739 279.834 21.158 245.323 23.701" stroke="#A79071" stroke-linecap="round" stroke-linejoin="round" stroke-width="2"></path><path d="M273.591 51.5824C274.721 37.4928 268.468 7.77592 234.413 1.62535" stroke="#A79071" stroke-linecap="round" stroke-linejoin="round" stroke-width="2"></path><path d="M233.977 1.66334C236.582 15.5561 250.41 42.5924 284.886 39.5954" stroke="#A79071" stroke-linecap="round" stroke-linejoin="round" stroke-width="2"></path><path d="M257.013 11.4688C255.623 25.5352 261.327 55.3623 295.262 62.14" stroke="#A79071" stroke-linecap="round" stroke-linejoin="round" stroke-width="2"></path><path d="M63.0247 1.0105H233.977" stroke="#A79071" stroke-linecap="round" stroke-width="2"></path><path d="M1.27307 306.08C3.69496 320.006 17.1667 347.222 51.6785 344.679" stroke="#A79071" stroke-linecap="round" stroke-linejoin="round" stroke-width="2"></path><path d="M23.4102 316.797C22.28 330.886 28.5332 360.603 62.5876 366.754" stroke="#A79071" stroke-linecap="round" stroke-linejoin="round" stroke-width="2"></path><path d="M63.0247 366.716C60.4197 352.824 46.591 325.787 12.1156 328.784" stroke="#A79071" stroke-linecap="round" stroke-linejoin="round" stroke-width="2"></path><path d="M39.9883 356.912C41.3782 342.846 35.6742 313.018 1.73896 306.241" stroke="#A79071" stroke-linecap="round" stroke-linejoin="round" stroke-width="2"></path><path d="M295.728 306.08C293.306 320.006 279.834 347.222 245.322 344.679" stroke="#A79071" stroke-linecap="round" stroke-linejoin="round" stroke-width="2"></path><path d="M273.591 316.797C274.721 330.886 268.468 360.603 234.414 366.754" stroke="#A79071" stroke-linecap="round" stroke-linejoin="round" stroke-width="2"></path><path d="M233.977 366.716C236.582 352.824 250.41 325.787 284.886 328.784" stroke="#A79071" stroke-linecap="round" stroke-linejoin="round" stroke-width="2"></path><path d="M257.013 356.912C255.623 342.846 261.327 313.018 295.262 306.241" stroke="#A79071" stroke-linecap="round" stroke-linejoin="round" stroke-width="2"></path><path d="M63.0247 367.369H233.977" stroke="#A79071" stroke-linecap="round" stroke-width="2"></path><line stroke="#A79071" stroke-linecap="round" stroke-width="2" x1="296.728" x2="296.728" y1="63.3013" y2="305.08"></line><line stroke="#A79071" stroke-linecap="round" stroke-width="2" x1="1.36487" x2="1.36486" y1="63.3013" y2="305.08"></line></svg>