<svg class="desktop_view" fill="none" height="100%" preserveAspectRatio="none" viewBox="0 0 1117 1461" width="100%" xmlns="http://www.w3.org/2000/svg"><path d="M33.7988 1100L1087.24 1100" stroke="#FFCD9F" stroke-width="2"></path><ellipse cx="1088.6" cy="1100" fill="#FFCD9F" rx="6.40284" ry="5.83936"></ellipse><ellipse cx="28.0816" cy="1100" fill="#FFCD9F" rx="6.40284" ry="5.83936"></ellipse><path d="M33.7988 647L1087.24 647" stroke="#FFCD9F" stroke-width="2"></path><ellipse cx="1088.6" cy="645.839" fill="#FFCD9F" rx="6.40284" ry="5.83936"></ellipse><ellipse cx="28.0816" cy="645.839" fill="#FFCD9F" rx="6.40284" ry="5.83936"></ellipse><path d="M558.5 0L558 207" stroke="#FFCD9F" stroke-width="2"></path><circle cx="558.5" cy="207.339" fill="#FFCD9F" r="6.33936"></circle><path d="M257.5 294H13C6.37258 294 1 299.373 1 306L1 1420C1 1426.63 6.37258 1432 13 1432H558" stroke="#FFCD9F" stroke-width="2"></path><path d="M258.216 259H39C32.3726 259 27 264.373 27 271V1448C27 1454.63 32.3726 1460 39 1460H561" stroke="#FFCD9F" stroke-width="2"></path><path d="M856.404 294H1104C1110.63 294 1116 299.373 1116 306V1420C1116 1426.63 1110.63 1432 1104 1432H558" stroke="#FFCD9F" stroke-width="2"></path><path d="M856.219 259H1077.68C1084.31 259 1089.68 264.371 1089.68 270.997L1090 1448C1090 1454.63 1084.63 1460 1078 1460H557" stroke="#FFCD9F" stroke-width="2"></path><path d="M282 207.769L832 207.769" stroke="#FFCD9F" stroke-width="2"></path><path d="M228 259.478L257 231.978" stroke="#FFCD9F" stroke-width="2"></path><path d="M262.633 226.479L283 207.478" stroke="#FFCD9F" stroke-width="2"></path><path d="M886 259.478L857 231.978" stroke="#FFCD9F" stroke-width="2"></path><path d="M851.367 226.479L831 207.478" stroke="#FFCD9F" stroke-width="2"></path><path d="M257 293.5V226.5H856.5V294" stroke="#FFCD9F" stroke-width="2"></path></svg>