<svg fill="none" height="100%" preserveAspectRatio="none" type="desktop" viewBox="0 0 826 448" width="100%" xmlns="http://www.w3.org/2000/svg"><path d="M11.9346 76.2357C14.8675 59.3715 31.1818 26.4128 72.9759 29.4924" stroke="#FFCD9F" stroke-linecap="round" stroke-linejoin="round" stroke-width="2.42201"></path><path d="M38.7429 63.2573C37.3742 46.1948 44.9468 10.2075 86.187 2.7591" stroke="#FFCD9F" stroke-linecap="round" stroke-linejoin="round" stroke-width="2.42201"></path><path d="M86.7154 2.80323C83.5609 19.6274 66.8142 52.3685 25.0643 48.7392" stroke="#FFCD9F" stroke-linecap="round" stroke-linejoin="round" stroke-width="2.42201"></path><path d="M58.8186 14.6791C60.5017 31.7136 53.5942 67.8344 12.4984 76.0422" stroke="#FFCD9F" stroke-linecap="round" stroke-linejoin="round" stroke-width="2.42201"></path><path d="M87 2H749" stroke="#FFCD9F" stroke-linecap="round" stroke-width="2.42201"></path><path d="M11.9346 371.456C14.8675 388.32 31.1818 421.279 72.9759 418.199" stroke="#FFCD9F" stroke-linecap="round" stroke-linejoin="round" stroke-width="2.42201"></path><path d="M38.7429 384.434C37.3742 401.497 44.9468 437.484 86.187 444.933" stroke="#FFCD9F" stroke-linecap="round" stroke-linejoin="round" stroke-width="2.42201"></path><path d="M86.7159 444.888C83.5613 428.064 66.8147 395.323 25.0648 398.952" stroke="#FFCD9F" stroke-linecap="round" stroke-linejoin="round" stroke-width="2.42201"></path><path d="M58.8186 433.013C60.5017 415.979 53.5942 379.858 12.4984 371.65" stroke="#FFCD9F" stroke-linecap="round" stroke-linejoin="round" stroke-width="2.42201"></path><path d="M87 445H747" stroke="#FFCD9F" stroke-linecap="round" stroke-width="2.42201"></path><path d="M822.918 76.2357C819.985 59.3715 803.671 26.4128 761.877 29.4924" stroke="#FFCD9F" stroke-linecap="round" stroke-linejoin="round" stroke-width="2.42201"></path><path d="M796.11 63.2573C797.478 46.1948 789.906 10.2075 748.666 2.7591" stroke="#FFCD9F" stroke-linecap="round" stroke-linejoin="round" stroke-width="2.42201"></path><path d="M748.137 2.80323C751.292 19.6274 768.038 52.3685 809.788 48.7392" stroke="#FFCD9F" stroke-linecap="round" stroke-linejoin="round" stroke-width="2.42201"></path><path d="M776.034 14.6791C774.351 31.7136 781.258 67.8344 822.354 76.0422" stroke="#FFCD9F" stroke-linecap="round" stroke-linejoin="round" stroke-width="2.42201"></path><path d="M822.918 371.456C819.985 388.32 803.671 421.279 761.877 418.199" stroke="#FFCD9F" stroke-linecap="round" stroke-linejoin="round" stroke-width="2.42201"></path><path d="M796.11 384.434C797.479 401.497 789.906 437.484 748.666 444.933" stroke="#FFCD9F" stroke-linecap="round" stroke-linejoin="round" stroke-width="2.42201"></path><path d="M748.137 444.888C751.292 428.064 768.038 395.323 809.788 398.952" stroke="#FFCD9F" stroke-linecap="round" stroke-linejoin="round" stroke-width="2.42201"></path><path d="M776.034 433.013C774.351 415.979 781.259 379.858 822.355 371.65" stroke="#FFCD9F" stroke-linecap="round" stroke-linejoin="round" stroke-width="2.42201"></path><line stroke="#FFCD9F" stroke-linecap="round" stroke-width="2.42201" x1="824.129" x2="824.129" y1="77.4498" y2="370.245"></line><line stroke="#FFCD9F" stroke-linecap="round" stroke-width="2.42201" x1="12.0455" x2="12.0455" y1="77.4498" y2="370.245"></line></svg>