<svg class="mobile_view" fill="none" height="1562" preserveAspectRatio="none" viewBox="0 0 347 1562" width="347" xmlns="http://www.w3.org/2000/svg"><path d="M14.4727 184.692H79.4302" stroke="#FFCD9F" stroke-width="2"></path><path d="M267.064 184.692H332.022" stroke="#FFCD9F" stroke-width="2"></path><path d="M85.7695 145.88H262.367" stroke="#FFCD9F" stroke-width="2"></path><path d="M110.722 131.497H237.415" stroke="#FFCD9F" stroke-width="2"></path><path d="M111.43 131.206L96.439 145.88" stroke="#FFCD9F" stroke-width="2"></path><path d="M86.3301 156.573L71.3394 171.247" stroke="#FFCD9F" stroke-width="2"></path><path d="M276.814 171.248L261.824 156.573" stroke="#FFCD9F" stroke-width="2"></path><path d="M251.715 145.881L236.724 131.207" stroke="#FFCD9F" stroke-width="2"></path><path d="M85.7695 144.879L85.7695 197.762" stroke="#FFCD9F" stroke-width="2"></path><path d="M261.544 145.613L261.544 197.763" stroke="#FFCD9F" stroke-width="2"></path><path d="M175.045 1448.92L175.045 1531.04" stroke="#FFCD9F" stroke-width="2"></path><circle cx="175.045" cy="1443.62" fill="#FFCD9F" r="6.33936"></circle><circle cx="175.045" cy="1529.5" fill="#FFCD9F" r="6.33936"></circle><mask fill="white" id="path-14-inside-1_0_1"><path d="M261.543 191.032C262.376 191.032 263.2 190.868 263.969 190.549C264.739 190.231 265.437 189.764 266.026 189.175C266.615 188.586 267.082 187.887 267.4 187.118C267.719 186.349 267.883 185.525 267.883 184.692C267.883 183.86 267.719 183.036 267.4 182.266C267.082 181.497 266.615 180.798 266.026 180.21C265.437 179.621 264.739 179.154 263.969 178.836C263.2 178.517 262.376 178.353 261.543 178.353L261.543 184.692L261.543 191.032Z"></path></mask><path d="M261.543 191.032C262.376 191.032 263.2 190.868 263.969 190.549C264.739 190.231 265.437 189.764 266.026 189.175C266.615 188.586 267.082 187.887 267.4 187.118C267.719 186.349 267.883 185.525 267.883 184.692C267.883 183.86 267.719 183.036 267.4 182.266C267.082 181.497 266.615 180.798 266.026 180.21C265.437 179.621 264.739 179.154 263.969 178.836C263.2 178.517 262.376 178.353 261.543 178.353L261.543 184.692L261.543 191.032Z" fill="#FFCD9F" mask="url(#path-14-inside-1_0_1)" stroke="#FFCD9F" stroke-width="2"></path><path d="M261.543 191.032C262.376 191.032 263.2 190.868 263.969 190.549C264.739 190.231 265.437 189.764 266.026 189.175C266.615 188.586 267.082 187.887 267.4 187.118C267.719 186.349 267.883 185.525 267.883 184.692C267.883 183.86 267.719 183.036 267.4 182.266C267.082 181.497 266.615 180.798 266.026 180.21C265.437 179.621 264.739 179.154 263.969 178.836C263.2 178.517 262.376 178.353 261.543 178.353L261.543 184.692L261.543 191.032Z" fill="#FFCD9F"></path><path d="M85.769 191.032C84.9365 191.032 84.1122 190.868 83.3431 190.549C82.574 190.231 81.8751 189.764 81.2864 189.175C80.6978 188.586 80.2308 187.887 79.9122 187.118C79.5937 186.349 79.4297 185.525 79.4297 184.692C79.4297 183.86 79.5937 183.036 79.9122 182.266C80.2308 181.497 80.6978 180.798 81.2864 180.21C81.8751 179.621 82.574 179.154 83.3431 178.836C84.1122 178.517 84.9365 178.353 85.769 178.353L85.769 184.692L85.769 191.032Z" fill="#FFCD9F"></path><path d="M86.0738 171.248H26.1338C19.5064 171.248 14.1338 176.62 14.1338 183.248V1548.01C14.1338 1554.64 19.5064 1560.01 26.1338 1560.01H175.738" stroke="#FFCD9F" stroke-width="2"></path><path d="M261.568 171.248H321.022C327.65 171.248 333.022 176.62 333.022 183.248L333.022 1548.01C333.022 1554.64 327.65 1560.01 321.022 1560.01H175.386" stroke="#FFCD9F" stroke-width="2"></path><path d="M84.8411 196.767H13C6.37258 196.767 1 202.14 1 208.767V1520.17C1 1526.79 6.37257 1532.17 13 1532.17H173.16" stroke="#FFCD9F" stroke-width="2"></path><path d="M262.122 196.767H333.709C340.336 196.767 345.709 202.14 345.709 208.767V1520.17C345.709 1526.79 340.336 1532.17 333.709 1532.17H174.707" stroke="#FFCD9F" stroke-width="2"></path><path d="M20.4727 364.257L333.585 364.257" stroke="#FFCD9F" stroke-width="2"></path><circle cx="189.855" cy="363.257" fill="#FFCD9F" r="5.33936" stroke="#FFCD9F" stroke-width="2"></circle><circle cx="15.1333" cy="363.257" fill="#FFCD9F" r="6.33936"></circle><circle cx="332.576" cy="363.257" fill="#FFCD9F" r="6.33936"></circle><path d="M20.4727 702.258L333.585 702.258" stroke="#FFCD9F" stroke-width="2"></path><circle cx="15.1333" cy="701.258" fill="#FFCD9F" r="6.33936"></circle><circle cx="332.576" cy="701.258" fill="#FFCD9F" r="6.33936"></circle><path d="M22.6787 1200.34L336.791 1200.34" stroke="#FFCD9F" stroke-width="2"></path><circle cx="15.3394" cy="1200.34" fill="#FFCD9F" r="6.33936"></circle><circle cx="332.781" cy="1200.34" fill="#FFCD9F" r="6.33936"></circle><path d="M173.5 0V131.959" stroke="#FFCD9F" stroke-width="2"></path><circle cx="173.5" cy="129.96" fill="#FFCD9F" r="6.61256"></circle></svg>