<svg class="desktop_view" fill="none" height="517" viewBox="0 0 1121 517" width="1121" xmlns="http://www.w3.org/2000/svg"><g opacity="0.5"><path d="M441.24 65.2109H189.791V256.579H2.87451V1079.91H189.791V1271.27H441.24" stroke="#A79071" stroke-width="4.19656"></path><path d="M45.4995 256.769V173.963H114.786V106.367H189.142" stroke="#A79071" stroke-width="4.19656"></path><rect height="42.6252" stroke="#A79071" stroke-width="4.19656" transform="matrix(1 0 0 -1 2.87451 111.016)" width="42.6252"></rect><path d="M680.137 65.2109H931.585V256.579H1118.5V1079.91H931.585V1271.27H680.137" stroke="#A79071" stroke-width="4.19656"></path><path d="M1075.88 256.769V173.963H1006.59V106.367H932.235" stroke="#A79071" stroke-width="4.19656"></path><rect height="42.6252" stroke="#A79071" stroke-width="4.19656" transform="rotate(180 1118.5 111.016)" width="42.6252" x="1118.5" y="111.016"></rect><path d="M505.725 3L442.093 65.5529L505.725 127.567H617.888L679.363 65.5529L617.888 3H505.725Z" stroke="#A79071" stroke-linejoin="round" stroke-width="4.19656"></path><path d="M505.725 37.9727L442.093 65.3997L505.725 92.5902H617.888L679.363 65.3997L617.888 37.9727H505.725Z" stroke="#A79071" stroke-linejoin="round" stroke-width="4.19656"></path></g></svg>