<svg class="mobile_view" fill="none" height="100%" preserveAspectRatio="none" viewBox="0 0 335 947" width="100%" xmlns="http://www.w3.org/2000/svg"><path d="M288.868 4.96094L328.242 42.5614" stroke="#A79071" stroke-width="2"></path><mask fill="white" id="path-2-inside-1_99_6"><rect height="6.82654" rx="1" width="245.118" x="44.2666"></rect></mask><rect height="6.82654" mask="url(#path-2-inside-1_99_6)" rx="1" stroke="#A79071" stroke-width="4" width="245.118" x="44.2666"></rect><mask fill="white" id="path-3-inside-2_99_6"><rect height="802.145" rx="1" width="7.75863" y="41.8228"></rect></mask><rect height="802.145" mask="url(#path-3-inside-2_99_6)" rx="1" stroke="#A79071" stroke-width="4" width="7.75863" y="41.8228"></rect><mask fill="white" id="path-4-inside-3_99_6"><rect height="802.145" rx="1" width="7.75863" x="327.242" y="41.8228"></rect></mask><rect height="802.145" mask="url(#path-4-inside-3_99_6)" rx="1" stroke="#A79071" stroke-width="4" width="7.75863" x="327.242" y="41.8228"></rect><path d="M7.104 42.5614L45.4774 5.96094" stroke="#A79071" stroke-width="2"></path><path d="M169 880.325L169 939.557" stroke="#A79071" stroke-width="1.85676"></path><path d="M7.104 841.968L45.4774 878.568" stroke="#A79071" stroke-width="2"></path><path d="M288.868 878.568L327.242 841.968" stroke="#A79071" stroke-width="2"></path><circle cx="168.707" cy="939.915" fill="#A79071" r="6.33936"></circle><mask fill="white" id="path-10-inside-4_99_6"><rect height="7" rx="1" width="245" x="45" y="874"></rect></mask><rect height="7" mask="url(#path-10-inside-4_99_6)" rx="1" stroke="#A79071" stroke-width="4" width="245" x="45" y="874"></rect></svg>